<?xml version="1.0" encoding="utf-8"?>
<!-- Generator: Adobe Illustrator 23.0.2, SVG Export Plug-In . SVG Version: 6.00 Build 0)  -->
<svg version="1.1" id="Layer_1" xmlns="http://www.w3.org/2000/svg" xmlns:xlink="http://www.w3.org/1999/xlink" x="0px" y="0px"
	 viewBox="0 0 1700.8 850.4" style="enable-background:new 0 0 1700.8 850.4;" xml:space="preserve">
<style type="text/css">
	.st0{fill:#FFFFFF;stroke:#000000;stroke-miterlimit:10;}
	.st1{fill:none;stroke:#000000;stroke-miterlimit:10;}
</style>
<path class="st0" d="M1442.4,80.1H31.6c-1.8,0-3.2-1.5-3.2-3.2V26.6c0-1.8,1.5-3.2,3.2-3.2h1410.8c1.8,0,3.2,1.5,3.2,3.2v50.2
	C1445.7,78.6,1444.2,80.1,1442.4,80.1z"/>
<path class="st0" d="M1442.4,158H31.6c-1.8,0-3.2-1.5-3.2-3.2v-50.2c0-1.8,1.5-3.2,3.2-3.2h1410.8c1.8,0,3.2,1.5,3.2,3.2v50.2
	C1445.7,156.5,1444.2,158,1442.4,158z"/>
<circle class="st0" cx="56.7" cy="129.6" r="9.9"/>
<line class="st1" x1="28.3" y1="129.6" x2="56.7" y2="129.6"/>
<line class="st1" x1="56.7" y1="222.6" x2="85" y2="222.6"/>
<line class="st1" x1="56.7" y1="129.6" x2="85" y2="129.6"/>
<circle class="st0" cx="113.4" cy="129.6" r="5.7"/>
<line class="st1" x1="85" y1="129.6" x2="113.4" y2="129.6"/>
<line class="st1" x1="113.4" y1="129.6" x2="141.7" y2="129.6"/>
<circle class="st0" cx="170.1" cy="129.6" r="5.7"/>
<line class="st1" x1="141.7" y1="129.6" x2="170.1" y2="129.6"/>
</svg>
