<?xml version="1.0" encoding="utf-8"?>
<!-- Generator: Adobe Illustrator 23.0.2, SVG Export Plug-In . SVG Version: 6.00 Build 0)  -->
<svg version="1.1"
	 id="svg8" xmlns:cc="http://creativecommons.org/ns#" xmlns:dc="http://purl.org/dc/elements/1.1/" xmlns:inkscape="http://www.inkscape.org/namespaces/inkscape" xmlns:rdf="http://www.w3.org/1999/02/22-rdf-syntax-ns#" xmlns:sodipodi="http://sodipodi.sourceforge.net/DTD/sodipodi-0.dtd" xmlns:svg="http://www.w3.org/2000/svg"
	 xmlns="http://www.w3.org/2000/svg" xmlns:xlink="http://www.w3.org/1999/xlink" x="0px" y="0px" viewBox="0 0 595.3 841.9"
	 style="enable-background:new 0 0 595.3 841.9;" xml:space="preserve">
<style type="text/css">
	.st0{fill:none;stroke:#FF0000;stroke-width:1.000000e-02;}
	.st1{fill:#FFFFFF;stroke:#FF0000;stroke-width:1.000000e-02;}
	.st2{enable-background:new    ;}
	.st3{fill:none;stroke:#0000FF;stroke-width:1.000000e-02;}
</style>
<sodipodi:namedview  bordercolor="#666666" borderopacity="1.0" id="base" inkscape:current-layer="layer1" inkscape:cx="461.67252" inkscape:cy="526.38947" inkscape:document-units="mm" inkscape:pageopacity="0.0" inkscape:pageshadow="2" inkscape:window-height="1377" inkscape:window-maximized="1" inkscape:window-width="2560" inkscape:window-x="1912" inkscape:window-y="-8" inkscape:zoom="2.8" pagecolor="#ffffff" showgrid="false">
	</sodipodi:namedview>
<path class="st0" d="M83.8,47.3c-0.1-2.2-0.4-4.3-0.9-6.4c2.4-4.5,8.1-11.3,6.2-13.4c-1.5-1.6-6.2,0.6-10.7,2.5
	c-5.6-9.2-15-15.2-25.6-15.2c-12.9,0-23.9,8.8-28.6,21.4c-4.9,1.8-8.4,6.4-8.4,11.7c0,0.7,0.1,1.5,0.2,2.2c1,8.9,12.2,25.8,20,29.1
	c4.8,3.5,10.6,5.6,16.8,5.6c14.3,0,26.4-11,30-25.8c0,0,0,0,0.1,0c1.8,0.4,3.6,0.8,5.1,1c2,0.2,3.5,0.1,4.1-0.8
	C93.5,56.7,87.1,51.3,83.8,47.3z"/>
<ellipse id="path944-5" class="st1" cx="44.3" cy="27.1" rx="3.2" ry="3.1"/>
<g class="st2">
	<path d="M59.1,47.4c-0.2,0.4-0.3,0.8-0.4,1.1c-0.1,0.3-0.1,0.7-0.1,1c0,0.2,0,0.4,0.1,0.6s0.2,0.3,0.4,0.5c0.1,0.1,0.3,0.2,0.5,0.3
		c0.2,0.1,0.4,0.1,0.6,0.1c0.3,0,0.5,0,0.8-0.1c0.3,0,0.6-0.1,0.8-0.2s0.5-0.2,0.7-0.3c0.2-0.1,0.4-0.2,0.5-0.3
		c-0.1,0-0.2-0.1-0.4-0.1s-0.3,0-0.6-0.1c-0.2,0-0.4-0.1-0.6-0.1c-0.2,0-0.3-0.1-0.4-0.2c-0.1-0.1-0.2-0.2-0.2-0.3
		c0-0.1-0.1-0.3-0.1-0.4c0-0.1,0-0.2,0-0.3c0-0.1,0.1-0.3,0.1-0.4s0.1-0.2,0.2-0.3c0.1-0.1,0.1-0.1,0.2-0.1c0.1,0,0.1,0,0.1,0.1
		c0,0.1,0,0.2,0,0.3c0,0,0,0.1,0,0.1c0,0,0.1,0.1,0.2,0.1s0.2,0.1,0.3,0.1s0.3,0.1,0.6,0.1c0.2,0,0.3,0.1,0.5,0.1
		c0.1,0,0.2,0.1,0.3,0.2s0.2,0.2,0.2,0.3c0,0.1,0.1,0.3,0.1,0.5c0,0.1,0,0.2,0,0.4c0,0.1,0,0.3-0.1,0.4c0,0.1-0.1,0.3-0.1,0.4
		s-0.1,0.3-0.1,0.4c-0.2,0.2-0.4,0.3-0.6,0.5s-0.5,0.3-0.8,0.4c-0.3,0.1-0.6,0.2-0.9,0.3s-0.6,0.1-1,0.1c-0.4,0-0.7-0.1-1-0.2
		c-0.3-0.1-0.5-0.3-0.6-0.5c-0.2-0.2-0.3-0.5-0.3-0.8c-0.1-0.3-0.1-0.6-0.1-0.8c0-0.3,0-0.6,0.1-0.9c0.1-0.3,0.1-0.6,0.2-0.8
		c0.1-0.3,0.2-0.5,0.3-0.7c0.1-0.2,0.2-0.4,0.3-0.6L59.1,47.4z M61.5,54.9l-0.8-0.6l-0.3,0.6l-0.9-0.7l0.7-1l0.8,0.6l0.4-0.6
		l0.9,0.7L61.5,54.9z"/>
	<path d="M65.5,49.7c-0.2,0-0.3,0-0.5-0.1c-0.1-0.1-0.2-0.1-0.3-0.3s-0.2-0.3-0.3-0.4c-0.1-0.2-0.2-0.4-0.2-0.6
		c-0.1-0.2-0.1-0.4-0.2-0.5s-0.1-0.3-0.2-0.4c-0.1-0.1-0.2-0.2-0.3-0.2c-0.1,0-0.2-0.1-0.4-0.1c-0.2,0-0.4,0-0.6,0.1
		s-0.4,0.2-0.5,0.3c-0.2,0.1-0.3,0.2-0.4,0.3c-0.1,0.1-0.2,0.2-0.2,0.3c0,0.1,0,0.3-0.1,0.4s-0.1,0.3-0.1,0.4
		c-0.1,0.1-0.1,0.2-0.2,0.3s-0.1,0.1-0.1,0.1c0,0-0.1,0-0.1-0.1s0-0.2,0-0.3c0-0.2,0-0.5,0.1-0.7c0.1-0.2,0.2-0.5,0.3-0.7
		s0.3-0.5,0.5-0.7s0.4-0.4,0.6-0.6c0.2-0.2,0.4-0.3,0.6-0.4c0.2-0.1,0.4-0.1,0.6-0.1c0.2,0,0.3,0,0.5,0.1c0.1,0.1,0.2,0.1,0.3,0.2
		s0.2,0.3,0.3,0.5c0.1,0.2,0.2,0.4,0.3,0.7c0,0.1,0.1,0.2,0.1,0.3c0,0.1,0.1,0.2,0.2,0.3c0.1,0.1,0.1,0.1,0.2,0.2s0.2,0.1,0.3,0.1
		v1.6H65.5z M63.9,44.9l-0.8-0.6l-0.3,0.6l-0.9-0.7l0.7-1l0.8,0.6l0.4-0.6l0.9,0.7L63.9,44.9z"/>
	<path d="M68.4,49.7c-0.1,0-0.3,0-0.3,0c-0.1,0-0.2,0-0.2-0.1c-0.1-0.1-0.1-0.1-0.2-0.3s-0.1-0.3-0.2-0.5h-0.1L67,49.7h-1.4
		c-0.1,0-0.1,0-0.2,0c-0.1,0-0.1-0.1-0.2-0.1s-0.1-0.1-0.1-0.2c0-0.1-0.1-0.2-0.1-0.3v-0.4c0-0.1,0-0.2,0.1-0.3
		c0-0.1,0.1-0.1,0.1-0.2c0.1,0,0.1-0.1,0.2-0.1c0.1,0,0.1,0,0.2,0h1.6l-0.4-5.8l0.8-1.4c0,0.2,0,0.5,0,0.8c0,0.3,0,0.7,0.1,1.1
		c0,0.4,0,0.8,0.1,1.2c0,0.4,0,0.9,0.1,1.3c0,0.4,0,0.8,0,1.2c0,0.4,0,0.7,0,1.1c0,0.1,0,0.2,0,0.2s0,0.2,0.1,0.2
		c0,0.1,0.1,0.1,0.2,0.1c0.1,0,0.2,0,0.3,0h0.1v1.6H68.4z"/>
	<path d="M68.6,49.7c-0.1,0-0.1,0-0.2,0s-0.1-0.1-0.2-0.1c-0.1,0-0.1-0.1-0.1-0.2c0-0.1-0.1-0.2-0.1-0.2v-0.4c0-0.1,0-0.2,0.1-0.3
		c0-0.1,0.1-0.1,0.1-0.2c0.1,0,0.1-0.1,0.2-0.1s0.1,0,0.2,0h1.7c0-0.1-0.1-0.2-0.1-0.4c-0.1-0.1-0.1-0.3-0.2-0.4
		c-0.1-0.1-0.1-0.3-0.2-0.4c-0.1-0.1-0.1-0.2-0.2-0.3l0.7-1.3c0.1,0.1,0.2,0.3,0.2,0.5s0.2,0.4,0.2,0.6c0.1,0.2,0.1,0.4,0.2,0.6
		s0.1,0.4,0.1,0.6c0,0.2,0,0.3,0,0.5c0,0.2-0.1,0.3-0.1,0.5c0,0.2-0.1,0.3-0.1,0.5c0,0.2-0.1,0.3-0.1,0.4H68.6z M70.5,44.5
		c-0.1,0-0.3,0.1-0.4,0.1s-0.3,0.1-0.4,0.2c-0.1,0.1-0.2,0.1-0.2,0.2c-0.1,0.1-0.1,0.2-0.2,0.3L69,45.3c0-0.1,0.1-0.2,0.1-0.3
		c0.1-0.1,0.1-0.2,0.2-0.3c-0.1-0.1-0.2-0.1-0.3-0.2c-0.1-0.1-0.1-0.2-0.1-0.3s0-0.2,0.1-0.4s0.2-0.3,0.3-0.4s0.2-0.2,0.3-0.3
		c0.1-0.1,0.2-0.1,0.3-0.1c0.1,0,0.2,0,0.2,0.1s0.1,0.1,0.1,0.2c0,0.1,0,0.3-0.1,0.4c-0.1-0.1-0.1-0.1-0.2-0.1c-0.1,0-0.1,0-0.2,0
		c-0.1,0-0.2,0-0.3,0.1c-0.1,0.1-0.1,0.2-0.1,0.3c0,0.1,0,0.1,0.1,0.2s0.1,0.1,0.1,0.1c0.1,0,0.1,0.1,0.2,0.1c0.1,0,0.1,0,0.2,0
		c0.1,0,0.2,0,0.4-0.1c0.1,0,0.3-0.1,0.5-0.2L70.5,44.5z"/>
	<path d="M73.3,49.7c-0.1,0-0.1,0-0.2,0s-0.1-0.1-0.2-0.1c0,0-0.1-0.1-0.1-0.1c0,0-0.1-0.1-0.1-0.1c-0.1-0.1-0.1-0.2-0.1-0.4
		c0-0.2,0-0.4-0.1-0.6c-0.1-1-0.1-2-0.2-3s-0.1-2.1-0.2-3.1l0.8-1.4l0.3,6.8c0,0.1,0,0.2,0.1,0.3s0.1,0.1,0.2,0.1h1.1v1.6H73.3z"/>
	<path d="M79.7,49.1c-0.1,0-0.3,0.1-0.5,0.1c-0.2,0-0.4,0.1-0.7,0.1c-0.2,0-0.5,0.1-0.8,0.1s-0.5,0.1-0.7,0.1c-0.1,0-0.3,0-0.5,0
		s-0.4,0-0.7,0c-0.2,0-0.4,0-0.7,0c-0.2,0-0.4,0-0.5,0c-0.1,0-0.1,0-0.2,0s-0.1-0.1-0.2-0.1c-0.1,0-0.1-0.1-0.1-0.2
		c0-0.1-0.1-0.2-0.1-0.2v-0.4c0-0.1,0-0.2,0.1-0.3c0-0.1,0.1-0.1,0.1-0.2c0.1,0,0.1-0.1,0.2-0.1s0.1,0,0.2,0c0.1,0,0.2,0,0.3,0
		s0.3,0,0.4,0c0.1,0,0.3,0,0.4,0c0.1,0,0.2,0,0.3,0c-0.1-0.1-0.1-0.2-0.2-0.4c-0.1-0.1-0.1-0.3-0.1-0.5c0-0.2,0-0.4,0.1-0.6
		c0.1-0.2,0.1-0.4,0.2-0.6c0.1-0.2,0.2-0.4,0.3-0.6c0.1-0.2,0.3-0.3,0.4-0.5c0.1-0.1,0.3-0.3,0.4-0.3c0.1-0.1,0.3-0.1,0.4-0.1
		c0.2,0,0.4,0,0.5,0.1s0.3,0.2,0.4,0.3c0.1,0.1,0.3,0.3,0.4,0.5c0.1,0.2,0.2,0.4,0.3,0.5l-0.1,0.1c-0.1-0.1-0.3-0.3-0.4-0.4
		c-0.2-0.1-0.3-0.1-0.5-0.1c-0.1,0-0.2,0-0.4,0c-0.1,0-0.3,0-0.4,0.1c-0.1,0-0.3,0.1-0.4,0.1s-0.3,0.1-0.4,0.2
		c0,0.2,0.1,0.5,0.2,0.6c0.1,0.2,0.2,0.4,0.4,0.5c0.1,0.2,0.3,0.3,0.4,0.4c0.1,0.1,0.3,0.2,0.4,0.2c0,0,0.1,0,0.2,0
		c0.1,0,0.2,0,0.4-0.1c0.1,0,0.3,0,0.5-0.1s0.3,0,0.5-0.1c0.2,0,0.3,0,0.4-0.1c0.1,0,0.2,0,0.2,0L79.7,49.1z"/>
</g>
<g class="st2">
	<path d="M31,59.1c-0.2,0.4-0.4,0.8-0.5,1.1c-0.1,0.3-0.2,0.7-0.2,1c0,0.2,0.1,0.4,0.2,0.6c0.1,0.2,0.3,0.3,0.5,0.5s0.4,0.2,0.7,0.3
		c0.3,0.1,0.5,0.1,0.8,0.1c0.4,0,0.7,0,1.1-0.1c0.4,0,0.8-0.1,1.1-0.2c0.4-0.1,0.7-0.2,1-0.3c0.3-0.1,0.5-0.2,0.7-0.3
		c-0.1,0-0.3-0.1-0.5-0.1c-0.2,0-0.4,0-0.8-0.1c-0.3,0-0.6-0.1-0.8-0.1c-0.2,0-0.4-0.1-0.6-0.2s-0.2-0.2-0.3-0.3
		c-0.1-0.1-0.1-0.3-0.1-0.4c0-0.1,0-0.2,0.1-0.3c0-0.1,0.1-0.3,0.2-0.4c0.1-0.1,0.1-0.2,0.2-0.3c0.1-0.1,0.2-0.1,0.2-0.1
		c0.1,0,0.1,0,0.2,0.1c0,0.1,0.1,0.2,0.1,0.3c0,0,0,0.1,0.1,0.1c0,0,0.1,0.1,0.2,0.1c0.1,0,0.3,0.1,0.4,0.1s0.4,0.1,0.7,0.1
		c0.2,0,0.4,0.1,0.6,0.1c0.2,0,0.3,0.1,0.4,0.2c0.1,0.1,0.2,0.2,0.3,0.3c0.1,0.1,0.1,0.3,0.1,0.5c0,0.1,0,0.2,0,0.4
		c0,0.1-0.1,0.3-0.1,0.4c0,0.1-0.1,0.3-0.2,0.4c-0.1,0.1-0.1,0.3-0.2,0.4c-0.2,0.2-0.5,0.3-0.8,0.5c-0.3,0.1-0.7,0.3-1.1,0.4
		c-0.4,0.1-0.8,0.2-1.2,0.3c-0.4,0.1-0.9,0.1-1.3,0.1c-0.5,0-1-0.1-1.3-0.2c-0.4-0.1-0.6-0.3-0.9-0.5c-0.2-0.2-0.4-0.5-0.4-0.8
		c-0.1-0.3-0.1-0.6-0.1-0.8c0-0.3,0-0.6,0.1-0.9c0.1-0.3,0.2-0.6,0.3-0.8c0.1-0.3,0.3-0.5,0.4-0.7c0.1-0.2,0.3-0.4,0.4-0.6L31,59.1z
		 M34.4,66.6l-1-0.5l-0.5,0.5l-1.3-0.7l0.9-1l1,0.6l0.5-0.6l1.3,0.7L34.4,66.6z"/>
	<path d="M39.8,61.4c-0.2,0-0.4,0-0.6-0.1c-0.2-0.1-0.3-0.1-0.4-0.3s-0.2-0.3-0.3-0.4c-0.1-0.2-0.2-0.4-0.3-0.6
		c-0.1-0.2-0.2-0.4-0.3-0.5c-0.1-0.1-0.2-0.3-0.3-0.4c-0.1-0.1-0.2-0.2-0.4-0.2c-0.1,0-0.3-0.1-0.5-0.1c-0.3,0-0.5,0-0.8,0.1
		c-0.3,0.1-0.5,0.2-0.7,0.3c-0.2,0.1-0.4,0.2-0.5,0.3c-0.1,0.1-0.2,0.2-0.2,0.3c0,0.1,0,0.3-0.1,0.4s-0.1,0.3-0.2,0.4
		c-0.1,0.1-0.2,0.2-0.2,0.3s-0.1,0.1-0.2,0.1c0,0-0.1,0-0.1-0.1c0-0.1-0.1-0.2-0.1-0.3c0-0.2,0.1-0.5,0.2-0.7
		c0.1-0.2,0.3-0.5,0.5-0.7s0.4-0.5,0.7-0.7c0.3-0.2,0.5-0.4,0.8-0.6s0.5-0.3,0.8-0.4c0.3-0.1,0.5-0.1,0.8-0.1c0.2,0,0.5,0,0.6,0.1
		c0.2,0.1,0.3,0.1,0.5,0.2c0.1,0.1,0.3,0.3,0.4,0.4c0.1,0.2,0.2,0.4,0.3,0.7c0,0.1,0.1,0.2,0.2,0.3c0.1,0.1,0.1,0.2,0.2,0.3
		c0.1,0.1,0.2,0.1,0.3,0.2s0.3,0.1,0.4,0.1v1.6H39.8z M38.6,63.8L37.2,63l0.9-1.1l1.4,0.8L38.6,63.8z"/>
	<path d="M43.7,61.4c-0.2,0-0.3,0-0.5,0c-0.1,0-0.2,0-0.3-0.1c-0.1-0.1-0.2-0.1-0.2-0.3s-0.1-0.3-0.2-0.5h-0.1l-0.6,0.9H40
		c-0.1,0-0.2,0-0.3,0c-0.1,0-0.2-0.1-0.3-0.1c-0.1,0-0.1-0.1-0.2-0.2c-0.1-0.1-0.1-0.2-0.1-0.3v-0.4c0-0.1,0-0.2,0.1-0.3
		c0.1-0.1,0.1-0.1,0.2-0.2s0.2-0.1,0.3-0.1c0.1,0,0.2,0,0.3,0h2.2L41.6,54l1.1-1.4c0,0.2,0,0.5,0.1,0.8c0,0.3,0,0.7,0.1,1.1
		c0,0.4,0,0.8,0.1,1.2c0,0.4,0,0.8,0.1,1.3c0,0.4,0,0.8,0.1,1.2s0,0.7,0.1,1.1c0,0.1,0,0.2,0,0.2s0.1,0.1,0.1,0.2
		c0.1,0.1,0.1,0.1,0.2,0.1c0.1,0,0.2,0,0.4,0h0.1v1.6H43.7z"/>
	<path d="M44,61.4c-0.1,0-0.1,0-0.2,0s-0.2-0.1-0.2-0.1c-0.1,0-0.1-0.1-0.2-0.2c0-0.1-0.1-0.2-0.1-0.2v-0.4c0-0.1,0-0.2,0.1-0.3
		c0-0.1,0.1-0.1,0.2-0.2c0.1,0,0.1-0.1,0.2-0.1c0.1,0,0.2,0,0.2,0h4.6c0-0.1,0-0.1,0-0.1c0,0,0-0.1,0-0.1c0-0.2,0-0.3-0.1-0.5
		c0-0.2-0.1-0.3-0.1-0.5h-0.2c-0.1,0.1-0.1,0.2-0.2,0.2c-0.1,0.1-0.1,0.1-0.2,0.2c-0.1,0.1-0.2,0.1-0.2,0.2c-0.1,0-0.2,0.1-0.3,0.1
		c-0.2,0-0.4,0-0.6-0.1s-0.4-0.1-0.6-0.2c-0.2-0.1-0.4-0.2-0.5-0.3c-0.1-0.1-0.2-0.3-0.2-0.5c0-0.4,0.1-0.7,0.2-1s0.3-0.6,0.6-0.9
		c0.2-0.3,0.5-0.5,0.7-0.6s0.5-0.2,0.8-0.2c0.3,0,0.5,0.1,0.7,0.3c0.2,0.2,0.4,0.5,0.6,0.8s0.3,0.7,0.4,1c0.1,0.4,0.1,0.8,0.1,1.1
		c0,0.1,0,0.3,0,0.4c0,0.1,0,0.3-0.1,0.5c0,0.2-0.1,0.4-0.2,0.7s-0.2,0.6-0.3,1H44z M48.3,54.8l-1-0.5l-0.5,0.5l-1.3-0.7l0.9-1
		l1,0.6l0.5-0.6l1.3,0.7L48.3,54.8z M48.3,57.9c0-0.1-0.1-0.2-0.2-0.3c-0.1-0.1-0.2-0.2-0.3-0.4c-0.1-0.1-0.2-0.2-0.3-0.3
		s-0.2-0.1-0.3-0.1s-0.2,0-0.3,0.1S46.6,57,46.5,57s-0.2,0.1-0.2,0.2c-0.1,0.1-0.1,0.2-0.1,0.2c0,0.1,0.1,0.1,0.2,0.2
		s0.2,0.1,0.4,0.1c0.1,0,0.3,0.1,0.5,0.1c0.2,0,0.3,0,0.5,0c0.1,0,0.2,0,0.2,0S48.2,57.9,48.3,57.9z"/>
</g>
<g>
	<path class="st3" d="M39.9,47.6c-0.3-3.6,14-6.2,16-9.3c0.2-0.4,0.4-0.9,0.4-1.5c-2-1.2-4.4-1.9-6.9-1.9c-4.1,0-7.9,1.8-10.4,4.9
		c-2.5-2.9-6.2-4.6-10.1-4.6c-7.2,0-13.1,5.6-13.1,12.5c0,0.7,0.1,1.5,0.2,2.2c1.1,9.9,14.8,29.6,22.5,29.7
		c5.7,0.1,15.1-10.6,20.2-20.1c-0.2-2.5-0.6-4.6-1.4-5.5C54.8,51.4,40.2,51.2,39.9,47.6z"/>
	<path class="st3" d="M58.7,59.6c0.5,5,0.5,11.3,2.9,11.9C65.2,72.3,70,59,73.4,57.6c1.7-0.7,5.6,0.3,9.5,1.3c1.8,0.4,3.6,0.8,5.1,1
		c2,0.2,3.5,0.1,4.1-0.8c1.5-2.3-4.9-7.7-8.2-11.7C82.7,46,82,44.9,81.9,44c-0.3-3.6,9.6-13.8,7.2-16.5c-2.5-2.7-14.4,5.4-18.1,4.6
		C67.4,31.3,60.3,19,56.9,20.4c-3,1.2,0,11.9-0.6,16.4"/>
</g>
</svg>
